<?xml version="1.0" encoding="utf-8"?>
<svg width="504px" height="109px" viewBox="0 0 504 109" version="1.1" xmlns:xlink="http://www.w3.org/1999/xlink" xmlns="http://www.w3.org/2000/svg">
  <desc>Created with Lunacy</desc>
  <defs>
    <linearGradient x1="0" y1="0" x2="1" y2="0.5471698" id="gradient_1">
      <stop offset="0" stop-color="#FFFFFF" />
      <stop offset="1" stop-color="#005AFF" />
    </linearGradient>
    <filter filterUnits="userSpaceOnUse" color-interpolation-filters="sRGB" id="filter_1">
      <feFlood flood-opacity="0" result="BackgroundImageFix" />
      <feBlend mode="normal" in="SourceGraphic" in2="BackgroundImageFix" result="shape" />
      <feColorMatrix in="SourceAlpha" type="matrix" values="0 0 0 0 0 0 0 0 0 0 0 0 0 0 0 0 0 0 127 0" result="hardAlpha" />
      <feOffset dx="0" dy="0" />
      <feGaussianBlur stdDeviation="2.5" />
      <feComposite in2="hardAlpha" operator="arithmetic" k2="-1" k3="1" />
      <feColorMatrix type="matrix" values="0 0 0 0 0 0 0 0 0 0 0 0 0 0 0 0 0 0 0.4 0" />
      <feBlend mode="normal" in2="shape" result="effect0_innerShadow" />
    </filter>
  </defs>
  <g id="Group-2" transform="translate(1.5 1.5)">
    <path d="M0 53C0 23.7289 23.7289 0 53 0C82.2711 0 106 23.7289 106 53C106 82.2711 82.2711 106 53 106C23.7289 106 0 82.2711 0 53Z" id="Ellipse" fill="url(#gradient_1)" stroke="none" />
    <g id="Group" transform="translate(12 24)">
      <path d="M0 0L43 0L43 43L0 43L0 0Z" transform="matrix(0.7071068 0.7071068 -0.7071068 0.7071068 30.40559 0.5)" id="Rectangle" fill="#D3D3D3" fill-opacity="0" stroke="#0B0025" stroke-width="3" />
      <g filter="url(#filter_1)">
        <path d="M0 0L43 0L43 43L0 43L0 0Z" transform="matrix(0.7071068 0.7071068 -0.7071068 0.7071068 51.90559 0)" id="Rectangle-Copy" fill="#D3D3D3" fill-opacity="0" stroke="#0B0025" stroke-width="3" />
      </g>
    </g>
    <g id="SQUAREDRSIGHT" fill="#8080FF" transform="translate(122 22)">
      <path d="M14.0156 33.8516Q8.22656 32.1875 5.58984 29.7617Q2.95313 27.3359 2.95313 23.7734Q2.95312 19.7422 6.17578 17.1055Q9.39844 14.4688 14.5547 14.4688Q18.0703 14.4688 20.8242 15.8281Q23.5781 17.1875 25.0898 19.5781Q26.6016 21.9688 26.6016 24.8047L22.0781 24.8047Q22.0781 21.7 20.1094 19.9242Q18.1406 18.1484 14.5547 18.1484Q11.2266 18.1484 9.36328 19.616Q7.5 21.0836 7.5 23.6896Q7.5 25.7795 9.26953 27.2235Q11.0391 28.6675 15.293 29.865Q19.5469 31.0625 21.9492 32.5039Q24.3516 33.9453 25.5117 35.8672Q26.6719 37.7891 26.6719 40.3906Q26.6719 44.5391 23.4375 47.0352Q20.2031 49.5313 14.7891 49.5313Q11.2734 49.5313 8.22656 48.1836Q5.17969 46.8359 3.52734 44.4922Q1.875 42.1484 1.875 39.1719L6.39844 39.1719Q6.39844 42.2656 8.68359 44.0586Q10.9687 45.8516 14.7891 45.8516Q18.3516 45.8516 20.25 44.3984Q22.1484 42.9453 22.1484 40.4375Q22.1484 37.9297 20.3906 36.5586Q18.6328 35.1875 14.0156 33.8516ZM58.5 33.1016Q58.5 38.0469 56.9297 41.6211Q55.3594 45.1953 52.5234 47.2109L58.6172 51.9922L55.5469 54.8281L48.3516 49.1094Q46.6641 49.5313 44.7891 49.5313Q40.7578 49.5313 37.6406 47.5508Q34.5234 45.5703 32.8008 41.9023Q31.0781 38.2344 31.0313 33.4063L31.0313 30.9453Q31.0313 26.0234 32.7422 22.25Q34.4531 18.4766 37.582 16.4727Q40.7109 14.4688 44.7422 14.4688Q48.8672 14.4688 51.9961 16.4609Q55.125 18.4531 56.8125 22.1914Q58.5 25.9297 58.5 30.9219L58.5 33.1016ZM247.371 29.7617Q250.008 32.1875 255.797 33.8516Q260.414 35.1875 262.172 36.5586Q263.93 37.9297 263.93 40.4375Q263.93 42.9453 262.031 44.3984Q260.133 45.8516 256.57 45.8516Q252.75 45.8516 250.465 44.0586Q248.18 42.2656 248.18 39.1719L243.656 39.1719Q243.656 42.1484 245.309 44.4922Q246.961 46.8359 250.008 48.1836Q253.055 49.5313 256.57 49.5313Q261.984 49.5313 265.219 47.0352Q268.453 44.5391 268.453 40.3906Q268.453 37.7891 267.293 35.8672Q266.133 33.9453 263.73 32.5039Q261.328 31.0625 257.074 29.865Q252.82 28.6675 251.051 27.2235Q249.281 25.7795 249.281 23.6896Q249.281 21.0836 251.145 19.616Q253.008 18.1484 256.336 18.1484Q259.922 18.1484 261.891 19.9242Q263.859 21.7 263.859 24.8047L268.383 24.8047Q268.383 21.9688 266.871 19.5781Q265.359 17.1875 262.605 15.8281Q259.852 14.4688 256.336 14.4688Q251.18 14.4688 247.957 17.1055Q244.734 19.7422 244.734 23.7734Q244.734 27.3359 247.371 29.7617ZM307.629 48.3008Q310.734 47.0703 312.469 44.5859L312.469 32.0703L300.094 32.0703L300.094 35.75L307.992 35.75L307.992 43.3965Q306.75 44.7291 304.852 45.2903Q302.953 45.8516 300.422 45.8516Q295.945 45.8516 293.32 42.4619Q290.695 39.0723 290.695 33.3253L290.695 30.5341Q290.719 24.5055 293.051 21.327Q295.383 18.1484 299.906 18.1484Q306.703 18.1484 307.969 24.9453L312.469 24.9453Q311.742 19.9297 308.484 17.1992Q305.227 14.4688 299.883 14.4688Q293.367 14.4688 289.77 18.7109Q286.172 22.9531 286.172 30.6641L286.172 33.6406Q286.219 38.3984 287.988 42.0078Q289.758 45.6172 292.992 47.5742Q296.227 49.5313 300.398 49.5313Q304.523 49.5313 307.629 48.3008ZM89.4609 38.1406L89.4609 14.9375L84.9375 14.9375L84.9375 38.0703Q84.9375 41.7734 82.9102 43.8125Q80.8828 45.8516 77.0625 45.8516Q73.2891 45.8516 71.25 43.8008Q69.2109 41.75 69.2109 38.0469L69.2109 14.9375L64.7578 14.9375L64.7578 38.1875Q64.8047 43.4844 68.1328 46.5078Q71.4609 49.5313 77.0625 49.5313L78.2578 49.4844Q83.4141 49.1094 86.4258 46.0391Q89.4375 42.9688 89.4609 38.1406ZM101.109 40.1328L97.8984 49.0625L93.2578 49.0625L106.289 14.9375L110.227 14.9375L123.281 49.0625L118.664 49.0625L115.406 40.1328L101.109 40.1328ZM132.375 35.2578L140.391 35.2578L147.797 49.0625L152.625 49.0625L152.625 48.7813L144.609 34.2969Q147.68 33.125 149.402 30.7578Q151.125 28.3906 151.125 25.2031Q151.125 20.1875 148.02 17.5625Q144.914 14.9375 139.148 14.9375L127.852 14.9375L127.852 49.0625L132.375 49.0625L132.375 35.2578ZM176.719 33.2891L161.93 33.2891L161.93 45.3828L179.109 45.3828L179.109 49.0625L157.43 49.0625L157.43 14.9375L178.875 14.9375L178.875 18.6172L161.93 18.6172L161.93 29.6094L176.719 29.6094L176.719 33.2891ZM184.711 14.9375L184.711 49.0625L194.156 49.0625Q198.75 49.0156 202.207 47.0703Q205.664 45.125 207.527 41.4922Q209.391 37.8594 209.391 33.0313L209.391 30.8516Q209.367 26.1406 207.504 22.5078Q205.641 18.875 202.219 16.9063Q198.797 14.9375 194.344 14.9375L184.711 14.9375ZM228.703 35.2578L220.688 35.2578L220.688 49.0625L216.164 49.0625L216.164 14.9375L227.461 14.9375Q233.227 14.9375 236.332 17.5625Q239.438 20.1875 239.438 25.2031Q239.438 28.3906 237.715 30.7578Q235.992 33.125 232.922 34.2969L240.938 48.7813L240.938 49.0625L236.109 49.0625L228.703 35.2578ZM279.047 49.0625L274.547 49.0625L274.547 14.9375L279.047 14.9375L279.047 49.0625ZM346.195 49.0625L341.672 49.0625L341.672 33.2891L324.469 33.2891L324.469 49.0625L319.969 49.0625L319.969 14.9375L324.469 14.9375L324.469 29.6094L341.672 29.6094L341.672 14.9375L346.195 14.9375L346.195 49.0625ZM366.797 18.6172L377.766 18.6172L377.766 14.9375L351.375 14.9375L351.375 18.6172L362.32 18.6172L362.32 49.0625L366.797 49.0625L366.797 18.6172ZM54 30.8984Q54 24.875 51.5977 21.6055Q49.1953 18.3359 44.7422 18.3359Q40.5 18.3359 38.0508 21.582Q35.6016 24.8281 35.5313 30.5938L35.5313 33.1016Q35.5313 38.9609 37.9805 42.3359Q40.4297 45.7109 44.7891 45.7109Q49.1484 45.7109 51.5391 42.5352Q53.9297 39.3594 54 33.4297L54 30.8984ZM139.289 31.5781L132.375 31.5781L132.375 18.6172L139.266 18.6172Q142.828 18.6406 144.715 20.3312Q146.602 22.0219 146.602 25.1914Q146.602 28.1031 144.621 29.8406Q142.641 31.5781 139.289 31.5781ZM189.211 45.3828L189.211 18.6172L194.461 18.6172Q199.477 18.6641 202.207 21.8896Q204.938 25.1152 204.938 30.9325L204.938 32.9265Q204.938 38.9086 202.043 42.1457Q199.148 45.3828 193.945 45.3828L189.211 45.3828ZM220.688 31.5781L227.602 31.5781Q230.953 31.5781 232.934 29.8406Q234.914 28.1031 234.914 25.1914Q234.914 22.0219 233.027 20.3312Q231.141 18.6406 227.578 18.6172L220.688 18.6172L220.688 31.5781ZM102.469 36.4531L114.07 36.4531L108.258 20.4922L102.469 36.4531Z" />
    </g>
  </g>
</svg>